<svg width="22" height="22" viewBox="0 0 22 22" fill="none" xmlns="http://www.w3.org/2000/svg">
<g id="Yellow">
<path id="Vector" d="M10.5312 0.813882C10.2547 0.912319 9.92187 1.26388 9.81406 1.55919C9.45312 2.57638 10.4094 3.54201 11.4406 3.19044C11.75 3.08263 12.0875 2.74513 12.1953 2.42638C12.3453 1.97638 12.2281 1.44669 11.9094 1.10451C11.6047 0.785756 10.9766 0.649819 10.5312 0.813882Z" fill="#ED4B82"/>
<path id="Vector_2" d="M10.7047 4.67168C10.3109 4.77012 10.0062 4.99043 9.69687 5.39824C9.47656 5.68418 7.48437 8.17793 6.94531 8.83418C6.6125 9.2373 6.82812 9.2373 5.1875 8.83418C3.7625 8.4873 3.65469 8.47324 3.22344 8.60449C2.6 8.79668 2.1875 9.35918 2.1875 10.0342C2.1875 10.2639 2.27187 10.6295 2.56719 11.6607C2.77344 12.392 3.17656 13.8123 3.4625 14.8201C3.74844 15.8232 4.02031 16.7232 4.06719 16.817C4.17969 17.042 4.4375 17.2623 4.65781 17.3232C4.90625 17.3936 17.0937 17.3936 17.3422 17.3232C17.5672 17.2623 17.8531 17.0092 17.9516 16.7795C17.9984 16.6811 18.3781 15.3873 18.8 13.9061C19.2219 12.4248 19.625 11.0232 19.6953 10.7936C19.9953 9.81855 19.7422 9.06387 19.0016 8.70762C18.4906 8.46387 18.3922 8.46855 16.9484 8.8248C16.2406 8.99355 15.6125 9.14824 15.5469 9.15762C15.4391 9.17637 15.3078 9.03105 14.2344 7.68574C13.5781 6.86543 13.0203 6.17168 12.9922 6.14355C12.9687 6.11543 12.8984 6.03105 12.8422 5.95605C12.2797 5.22012 12.0406 4.97168 11.75 4.82168C11.4125 4.65293 11.0094 4.59668 10.7047 4.67168Z" fill="#ED4B82"/>
<path id="Vector_3" d="M1.17969 5.12154C0.734375 5.34654 0.5 5.74029 0.5 6.25591C0.504688 6.97779 1.01094 7.49341 1.71875 7.50279C2.13125 7.50748 2.40781 7.39498 2.67031 7.11373C3.13906 6.61216 3.13438 5.86685 2.66094 5.35591C2.33281 4.99498 1.64375 4.88716 1.17969 5.12154Z" fill="#ED4B82"/>
<path id="Vector_4" d="M19.6906 5.11233C18.95 5.4592 18.7484 6.44827 19.2968 7.07639C19.7515 7.59202 20.4781 7.65764 21.0406 7.23577C21.6453 6.78108 21.664 5.7592 21.0781 5.28577C20.8062 5.07014 20.6093 4.99983 20.2484 4.99983C20.014 4.99983 19.8687 5.02795 19.6906 5.11233Z" fill="#DF5164"/>
<path id="Vector_5" d="M4.64375 19.0435C4.28281 19.1748 3.96875 19.6154 3.96875 19.9998C3.96875 20.3607 4.22188 20.7498 4.56875 20.9185C4.73281 21.0029 5.00938 21.0076 10.9016 21.0216C17.7594 21.0357 17.3891 21.0498 17.7172 20.7216C18.125 20.3138 18.1156 19.667 17.6891 19.2545C17.3844 18.9545 17.7406 18.9685 10.9813 18.9732C5.7125 18.9732 4.80781 18.9873 4.64375 19.0435Z" fill="#DF5164"/>
</g>
</svg>
